<?xml version="1.0" encoding="UTF-8"?>
<!DOCTYPE svg PUBLIC "-//W3C//DTD SVG 1.1//EN" "http://www.w3.org/Graphics/SVG/1.1/DTD/svg11.dtd">
<!-- Creator: CorelDRAW -->
<svg xmlns="http://www.w3.org/2000/svg" xml:space="preserve" width="6.82666in" height="6.82666in" style="shape-rendering:geometricPrecision; text-rendering:geometricPrecision; image-rendering:optimizeQuality; fill-rule:evenodd; clip-rule:evenodd"
viewBox="0 0 6.82666 6.82666"
 xmlns:xlink="http://www.w3.org/1999/xlink">
 <defs>
  <style type="text/css">
   <![CDATA[
    .fil0 {fill:#42A5F5}
    .fil1 {fill:#FFFFFE;fill-rule:nonzero}
   ]]>
  </style>
 </defs>
 <g id="Layer_x0020_1">
  <metadata id="CorelCorpID_0Corel-Layer"/>
  <rect class="fil0" width="6.82666" height="6.82666" rx="0.853335" ry="0.853335"/>
  <path class="fil1" d="M1.20315 3.20232l1.91534 0c0.1275,0.239476 0.564992,0.524937 0.811504,0.631453 0.022189,0.00958661 0.0458386,0.0153346 0.0699528,0.0169724l0.147398 0.0100118c0.135067,0.0933937 0.347039,0.159039 0.413425,-0.0512756 0.00812992,-0.0257559 0.0106299,-0.0524528 0.00811811,-0.0787126 0.088811,0.143504 0.28215,0.00822441 0.362252,-0.0753228l0 0.493476 -1.98099 0.25839 -1.981 -0.25839 0 -0.712602c0,-0.0644567 0.0262913,-0.122984 0.0686535,-0.165346 0.0423622,-0.0423622 0.100886,-0.0686535 0.165346,-0.0686535zm3.72799 1.06719l0 1.36318c0,0.0644606 -0.0262913,0.122984 -0.0686535,0.165346 -0.0423622,0.0423622 -0.100886,0.0686535 -0.165346,0.0686535l-3.49399 0c-0.0644606,0 -0.122984,-0.0262913 -0.165346,-0.0686535 -0.0423622,-0.0423622 -0.0686535,-0.100886 -0.0686535,-0.165346l0 -1.36323 1.98346 0.257831 1.97853 -0.257783z"/>
  <path class="fil1" d="M2.15079 3.30646c0,0.0589094 0.0477598,0.106669 0.106669,0.106669 0.0589094,0 0.106669,-0.0477598 0.106669,-0.106669l0 -0.315787c0,-0.0167756 0.00694488,-0.0321102 0.018122,-0.0432874 0.0111772,-0.0111732 0.0265118,-0.0181181 0.0432874,-0.0181181l0.522933 0c-0.0337008,-0.0689449 -0.0621654,-0.140232 -0.085,-0.213339l-0.437933 0c-0.0756614,0 -0.144374,0.0308819 -0.194122,0.080622 -0.0497441,0.0497441 -0.080626,0.118461 -0.080626,0.194122l0 0.315787z"/>
  <path class="fil1" d="M1.71219 3.18988c0,-0.0589094 -0.0477598,-0.106669 -0.106669,-0.106669 -0.0589094,0 -0.106669,0.0477598 -0.106669,0.106669l0 0.0814921c0,0.0589094 0.0477598,0.106669 0.106669,0.106669 0.0589094,0 0.106669,-0.0477598 0.106669,-0.106669l0 -0.0814921z"/>
  <path class="fil1" d="M3.57129 2.53192c0.0424606,-0.521713 0.526441,-1.1092 0.781421,-1.38532 0.0577047,-0.0624843 0.215366,-0.245055 0.311437,-0.236224 0.0122283,0.00112598 0.0260433,0.0100984 0.0201929,0.0198976 -0.064122,0.107504 -0.121224,0.332717 0.178161,0.895913 0.0703898,0.14248 0.157807,0.319417 0.26163,0.561681 0.0842244,0.196524 0.0993583,0.381264 0.0720591,0.549661 -0.0337913,0.208484 -0.132366,0.389083 -0.244677,0.534823 -0.0296732,0.0385118 -0.0569528,0.072752 -0.081811,0.102429 -0.0244331,0.0291654 -0.0484606,0.056374 -0.0723307,0.0817047 -0.00655512,0.00804724 -0.0145354,0.0151535 -0.0238583,0.0209252 -0.0449724,0.0278307 -0.104004,0.013937 -0.131839,-0.0310394l0.081437 -0.0504016 -0.0811811 0.0501339c-0.111406,-0.180012 -0.181846,-0.399437 -0.225575,-0.585437 -0.0698071,0.22615 -0.0856535,0.366134 0.0348504,0.640953 0.0125197,0.0222756 0.0161496,0.0494724 0.00785039,0.0757598 -0.0159213,0.0504409 -0.0697205,0.0784213 -0.120161,0.0625l1.9685e-005 -5.11811e-005c-0.0631181,-0.0199213 -0.127059,-0.0588622 -0.195866,-0.116748 -0.064,-0.0538386 -0.131252,-0.122811 -0.205807,-0.207421 -0.127894,-0.145142 -0.223299,-0.309303 -0.285055,-0.473992 -0.0661929,-0.176528 -0.0935827,-0.353882 -0.0808976,-0.509744z"/>
  <path class="fil1" d="M3.749 1.76083c-0.0728898,-0.17985 -0.187839,-0.463772 -0.142579,-0.606492 -0.0347126,-0.00325984 -0.0962638,0.0407087 -0.118063,0.0646457 -0.27352,0.264039 -0.609075,0.753724 -0.598406,1.14831 0.00719291,0.265563 0.11548,0.534134 0.298614,0.770984 0.189831,0.245512 0.461244,0.458126 0.783736,0.597579 0.0113898,0.00491732 0.0231654,0.00767323 0.034874,0.0084685 -0.052622,-0.0501693 -0.102315,-0.104079 -0.149965,-0.158154 -0.250587,-0.284378 -0.423409,-0.67989 -0.39224,-1.06291 0.0201811,-0.247933 0.128583,-0.495752 0.252201,-0.708835 0.0104134,-0.0179488 0.0210315,-0.035815 0.0318268,-0.0535984z"/>
  <path class="fil1" d="M5.14453 2.17012l0.00124016 0.00272835 0.00123622 0.00272835 9.05512e-005 0.00019685 0.00114567 0.0025315 0.00123622 0.00272835 0.00123622 0.00272835 0.000413386 0.000905512 0.000822835 0.00182677 0.00123622 0.00272835 0.00123228 0.00273228 0.000728346 0.00161417 0.000503937 0.00111811 0.00123228 0.00273228 0.00122835 0.00273228 0.00104724 0.00232283 0.000185039 0.000409449 0.00122835 0.00273228 0.00122835 0.00273622 0.00122835 0.00273228 0.000137795 0.00030315 0.00109055 0.00243307 0.00122441 0.00273622 0.00122441 0.00273622 0.000452756 0.00101181 0.00199606 0.00446457 0.00122441 0.00273622 0.000767717 0.00172047 0.000452756 0.00101969 0.00122441 0.00274016 0.00122047 0.00273622 0.00108268 0.00243701 0.000133858 0.000307087 0.00122047 0.00274016 0.00121654 0.00274016 0.00122047 0.00274409 0.000177165 0.000401575 0.00103937 0.00233858 0.0012126 0.00274409 0.00121654 0.00274409 0.000492126 0.00111811 0.000720472 0.00162598 0.0012126 0.00274803 0.0012126 0.00274409 0.000807087 0.00183071 0.000405512 0.000917323 0.00120866 0.00274803 0.0012126 0.00274803 0.00111811 0.00254331 9.05512e-005 0.000204724 0.00120866 0.00274803 0.00120472 0.00274803 0.00120866 0.00275197 0.000220472 0.000507874 0.000984252 0.00224409 0.00120472 0.00275197 0.00120472 0.00275197 0.000531496 0.00122047 0.000669291 0.0015315 0.00120079 0.00275591 0.00120079 0.00275197 0.000846457 0.00193701 0.000354331 0.000818898 0.00120079 0.00275591 0.00119685 0.00275591 0.00115354 0.00265354 4.72441e-005 0.000102362 0.00119685 0.00275984 0.00119291 0.00275984 0.00119685 0.00275591 0.00026378 0.000614173 0.000929134 0.00214567 0.00119291 0.00276378 0.00119291 0.00275984 0.000574803 0.00133071 0.00061811 0.00143307 0.00118898 0.00275984 0.00118898 0.00276378 0.00088189 0.00204724 0.000307087 0.000716535 0.00118898 0.00276772 0.00118898 0.00276378 0.00118504 0.00276772c0.0834094,0.194626 0.113272,0.399244 0.079311,0.608744 -0.000496063,0.00305118 -0.00100394,0.00609843 -0.00152756,0.00914173l-0.000153543 0.000929134 -0.000145669 0.000834646c-0.000488189,0.00283071 -0.000992126,0.00565354 -0.0015,0.00847638l-0.000220472 0.00121654c-0.000531496,0.0029252 -0.0010748,0.00585039 -0.00162992,0.00876772l-0.000307087 0.00159843 -0.00169291 0.00864567 -0.000228346 0.00114567c-0.000606299,0.00301575 -0.00122835,0.0060315 -0.00185827,0.00903937l-0.000181102 0.000854331c-0.000625984,0.00298031 -0.00126772,0.00595669 -0.00192126,0.00892913l-9.44882e-005 0.000425197 -3.93701e-006 1.5748e-005c-0.000716535,0.00326378 -0.00144488,0.00651969 -0.00219291,0.00977165l-2.75591e-005 0.000114173 -9.05512e-005 0.000397638c-0.000677165,0.00294094 -0.00137008,0.00587795 -0.00206693,0.00881102l-0.00026378 0.00110236 -0.0021378 0.00875984 -0.000267717 0.00109055c-0.000744094,0.00298425 -0.0015,0.00596457 -0.00226772,0.00894094l-0.000251969 0.000976378c-0.000748031,0.00288976 -0.00151181,0.00576772 -0.00227953,0.00864961l-0.000389764 0.00145669 -0.00218898 0.00805512 -0.000232283 0.000838583 -0.000173228 0.000614173 -0.00244882 0.00867323 -0.00011811 0.000409449 -7.87402e-006 3.14961e-005 -0.000149606 0.000519685 -0.00235827 0.00808268 -0.000318898 0.00109449 -0.000232283 0.000775591 -0.00229921 0.00762992 -0.000602362 0.00197244c-0.000834646,0.00272441 -0.00168504,0.00544488 -0.00253937,0.00816142l-0.000492126 0.00156693 -0.00264961 0.00826772 -0.000397638 0.00122441 -0.00282283 0.00854724 -0.000334646 0.00100394 -0.00286614 0.00845276 -0.000153543 0.000440945c-0.000988189,0.00287402 -0.00199213,0.00574803 -0.00300394,0.00861417l-0.000314961 0.000905512 -0.000125984 0.000350394 -5.11811e-005 0.000149606c-0.00100787,0.00285039 -0.00203543,0.00569685 -0.00306299,0.00853937l-0.00026378 0.000724409c-0.00100787,0.00277953 -0.00202756,0.00554724 -0.00305906,0.0083189l-0.000559055 0.00150787 -0.00310236 0.00822047 -0.000480315 0.00125591c-0.00107087,0.00279528 -0.00214961,0.00559055 -0.00324016,0.00837402l-0.000409449 0.00104331c-0.00102362,0.00261024 -0.00204724,0.00521654 -0.00309055,0.00781496l-0.000334646 0.000838583 -0.000492126 0.00121654 -0.00318898 0.00785433 -8.26772e-005 0.000200787 -2.3622e-005 5.90551e-005 -0.00015748 0.000377953 -0.00325591 0.00784646 -0.000448819 0.00108268 -0.000299213 0.000708661 -0.00309449 0.00727953 -0.000937008 0.00218898 -0.00312992 0.00720866 -0.000838583 0.00192126 -0.00358661 0.0080748 -0.000413386 0.000925197 -0.00367323 0.00811024 -0.000594488 0.00129528 -0.00350394 0.00758661 -0.000137795 0.000291339 -0.000208661 0.000452756 -0.000641732 0.00135827 -0.00328346 0.00695669 -0.000377953 0.000799213 -0.000145669 0.00030315c-0.00234646,0.0049252 -0.00472835,0.00983465 -0.0071378,0.0147362l-1.5748e-005 7.87402e-006c-0.0435433,0.0884606 -0.0970315,0.172283 -0.157622,0.250909 -0.0171142,0.0222087 -0.0344094,0.044315 -0.052,0.0661693 0.0121024,0.000527559 0.0245,-0.00101575 0.0367205,-0.00487008 0.220803,-0.0696929 0.456106,-0.220366 0.619661,-0.418598 0.143516,-0.173953 0.233244,-0.384969 0.214705,-0.612783 -0.0199921,-0.245657 -0.513783,-1.10944 -0.77224,-1.08567 0.00327559,0.0311693 0.0356575,0.401161 -0.0567677,0.436232 0.0404409,0.0837047 0.0800039,0.167587 0.118445,0.252185z"/>
 </g>
</svg>
